<?xml version="1.0" encoding="iso-8859-1"?>
<!-- Generator: Adobe Illustrator 19.0.0, SVG Export Plug-In . SVG Version: 6.00 Build 0)  -->
<svg version="1.1" id="Capa_1" xmlns="http://www.w3.org/2000/svg" xmlns:xlink="http://www.w3.org/1999/xlink" x="0px" y="0px"
	 viewBox="0 0 511.999 511.999" style="enable-background:new 0 0 511.999 511.999;" xml:space="preserve">
<g>
	<g>
		<path d="M413.949,155.583c-0.46-0.46-0.97-0.87-1.52-1.24c-0.54-0.36-1.12-0.67-1.72-0.92c-0.61-0.25-1.24-0.44-1.87-0.57
			c-3.25-0.66-6.701,0.41-9.03,2.73c-1.86,1.87-2.93,4.44-2.93,7.07c0,0.66,0.07,1.31,0.2,1.96c0.13,0.64,0.32,1.27,0.57,1.87
			c0.25,0.6,0.56,1.18,0.92,1.73c0.36,0.54,0.779,1.05,1.24,1.52c1.86,1.86,4.44,2.93,7.07,2.93c0.65,0,1.31-0.07,1.96-0.2
			c0.63-0.13,1.26-0.32,1.87-0.57c0.6-0.25,1.18-0.56,1.72-0.92c0.55-0.37,1.06-0.78,1.52-1.24c0.47-0.47,0.88-0.98,1.25-1.52
			c0.361-0.55,0.67-1.13,0.92-1.73c0.25-0.6,0.44-1.23,0.57-1.87c0.13-0.65,0.19-1.3,0.19-1.96
			C416.879,160.025,415.819,157.444,413.949,155.583z"/>
	</g>
</g>
<g>
	<g>
		<path d="M115.289,385.873c-0.12-0.64-0.32-1.27-0.57-1.87c-0.25-0.6-0.55-1.18-0.91-1.73c-0.37-0.54-0.79-1.06-1.25-1.52
			c-0.46-0.46-0.97-0.88-1.52-1.24c-0.54-0.36-1.12-0.67-1.72-0.92c-0.61-0.25-1.24-0.44-1.88-0.57c-1.29-0.26-2.61-0.26-3.9,0
			c-0.64,0.13-1.27,0.32-1.87,0.57c-0.61,0.25-1.19,0.56-1.73,0.92c-0.55,0.36-1.06,0.78-1.52,1.24c-0.46,0.46-0.88,0.98-1.24,1.52
			c-0.36,0.55-0.67,1.13-0.92,1.73c-0.25,0.6-0.45,1.23-0.57,1.87c-0.13,0.651-0.2,1.3-0.2,1.96c0,0.65,0.07,1.3,0.2,1.95
			c0.12,0.64,0.32,1.27,0.57,1.87c0.25,0.6,0.56,1.18,0.92,1.73c0.36,0.54,0.78,1.06,1.24,1.52c0.46,0.46,0.97,0.88,1.52,1.24
			c0.54,0.36,1.12,0.67,1.73,0.92c0.6,0.25,1.23,0.44,1.87,0.57s1.3,0.2,1.95,0.2c0.65,0,1.31-0.07,1.95-0.2
			c0.64-0.13,1.27-0.32,1.88-0.57c0.6-0.25,1.18-0.56,1.72-0.92c0.55-0.36,1.059-0.78,1.52-1.24c0.46-0.46,0.88-0.98,1.25-1.52
			c0.36-0.55,0.66-1.13,0.91-1.73c0.25-0.6,0.45-1.23,0.57-1.87c0.13-0.65,0.2-1.3,0.2-1.95
			C115.489,387.173,115.419,386.523,115.289,385.873z"/>
	</g>
</g>
<g>
	<g>
		<path d="M511.999,222.726c0-14.215-9.228-26.315-22.007-30.624c-1.628-74.155-62.456-133.978-136.994-133.978H159.002
			c-74.538,0-135.366,59.823-136.994,133.978C9.228,196.411,0,208.51,0,222.726c0,5.429,1.386,10.626,3.847,15.203
			c-0.528,2.767-0.795,5.585-0.795,8.427v0.708c0,14.06,6.519,26.625,16.693,34.833c-10.178,8.275-16.693,20.891-16.693,35.001
			c0,15.114,7.475,28.515,18.921,36.702v26.668c0,40.588,33.021,73.608,73.608,73.608h320.836c40.588,0,73.608-33.021,73.608-73.608
			v-26.668c11.446-8.186,18.921-21.587,18.921-36.702c0-13.852-6.354-26.385-16.361-34.702c9.983-8.212,16.361-20.656,16.361-34.562
			v-0.708c0-2.985-0.294-5.944-0.877-8.845C510.582,233.466,511.999,228.214,511.999,222.726z M44.033,173.229h322.441
			c5.523,0,10-4.477,10-10c0-5.523-4.477-10-10-10H49.737c16.896-43.883,59.503-75.106,109.265-75.106h193.996
			c62.942,0,114.438,49.953,116.934,112.295H42.068C42.302,184.57,42.968,178.83,44.033,173.229z M23.052,316.896
			c0-13.837,11.257-25.094,25.094-25.094h117.298l55.346,50.188H48.146C34.309,341.99,23.052,330.734,23.052,316.896z
			 M24.028,253.951c0.422,0.111,0.847,0.215,1.275,0.309c7.421,1.634,14.68,8.002,22.365,14.744
			c1.045,0.917,2.113,1.854,3.206,2.799h-3.081C36.54,271.802,27.019,264.252,24.028,253.951z M332.755,343.703l57.233-51.899
			l49.904,0.57l-81.871,74.24L332.755,343.703z M340.616,377.829H295.12l17.467-15.839h10.563L340.616,377.829z M360.215,291.802
			l-82.499,74.811l-82.499-74.811H360.215z M300.686,271.802c0.849-0.842,1.677-1.675,2.49-2.493
			c9.531-9.587,17.059-17.16,32.89-17.16c15.832,0,23.359,7.573,32.89,17.162c0.812,0.817,1.64,1.65,2.489,2.491H300.686z
			 M140.556,271.802c0.848-0.841,1.677-1.675,2.489-2.492c9.531-9.588,17.059-17.161,32.89-17.161
			c15.83,0,23.358,7.573,32.888,17.16c0.813,0.818,1.641,1.651,2.49,2.493H140.556z M416.418,433.875H95.582
			c-29.56,0-53.608-24.049-53.608-53.608v-18.275h200.872l17.467,15.839H145.897c-5.523,0-10,4.477-10,10s4.477,10,10,10H467.07
			C459.782,418.789,439.828,433.875,416.418,433.875z M470.026,377.829h-94.6l17.467-15.839h77.133V377.829z M463.852,341.992
			h-48.906l54.624-49.533c11.135,2.604,19.376,12.665,19.376,24.439C488.946,330.734,477.689,341.992,463.852,341.992z
			 M461.124,271.802c0.087-0.076,0.175-0.151,0.262-0.227c0.034-0.029,0.067-0.058,0.101-0.087c0.114-0.099,0.228-0.199,0.342-0.298
			c0.848-0.738,1.682-1.469,2.501-2.187c4.105-3.601,8.089-7.095,12.04-9.819c3.446-2.375,6.868-4.164,10.326-4.925
			c0.12-0.027,0.24-0.054,0.359-0.081c0.013-0.003,0.027-0.006,0.04-0.01c0.106-0.025,0.212-0.05,0.317-0.076
			c0.022-0.005,0.044-0.011,0.065-0.016c0.094-0.023,0.187-0.046,0.28-0.07c0.047-0.012,0.093-0.024,0.14-0.037
			c0.065-0.017,0.131-0.034,0.196-0.052c0.017-0.003,0.032-0.007,0.048-0.012c-2.433,9.276-10.129,16.443-19.691,18.102
			c-0.655-0.135-1.33-0.205-2.016-0.205H461.124z M482.395,234.729c-1.555,0.343-3.066,0.773-4.536,1.281
			c-10.109,3.489-18.327,10.602-26.283,17.58c-0.145,0.127-0.289,0.254-0.434,0.381c-9.178,8.052-17.923,15.723-29.033,17.834
			h-13.146c-11.249-1.93-17.833-8.552-25.823-16.591c-10.213-10.275-22.923-23.062-47.074-23.062
			c-24.15,0-36.86,12.786-47.074,23.06c-7.992,8.04-14.576,14.663-25.829,16.593h-14.327c-11.253-1.93-17.837-8.553-25.829-16.593
			c-10.213-10.274-22.923-23.06-47.072-23.06c-24.151,0-36.861,12.787-47.074,23.062c-7.991,8.039-14.574,14.661-25.824,16.591
			h-7.065c-14.134,0-24.325-8.939-35.113-18.404c-9.248-8.112-18.81-16.501-31.252-19.241c-2.779-0.612-5.274-2.193-7.025-4.453
			c-0.352-0.454-0.738-0.872-1.153-1.252c-0.914-1.727-1.428-3.684-1.428-5.727c-0.001-6.788,5.52-12.309,12.307-12.309h447.384
			c6.787,0,12.308,5.521,12.308,12.308C492,228.456,487.961,233.503,482.395,234.729z"/>
	</g>
</g>
<g>
</g>
<g>
</g>
<g>
</g>
<g>
</g>
<g>
</g>
<g>
</g>
<g>
</g>
<g>
</g>
<g>
</g>
<g>
</g>
<g>
</g>
<g>
</g>
<g>
</g>
<g>
</g>
<g>
</g>
</svg>
