<?xml version="1.0" encoding="iso-8859-1"?>
<!-- Generator: Adobe Illustrator 19.0.0, SVG Export Plug-In . SVG Version: 6.00 Build 0)  -->
<svg version="1.1" id="Capa_1" xmlns="http://www.w3.org/2000/svg" xmlns:xlink="http://www.w3.org/1999/xlink" x="0px" y="0px"
	 viewBox="0 0 512 512" style="enable-background:new 0 0 512 512;" xml:space="preserve">
<g>
	<g>
		<path d="M428.22,302.28c-0.13-0.64-0.32-1.27-0.57-1.87c-0.25-0.61-0.56-1.19-0.92-1.73c-0.37-0.55-0.779-1.06-1.25-1.52
			c-0.46-0.46-0.97-0.88-1.52-1.24c-0.54-0.36-1.12-0.67-1.72-0.92c-0.6-0.25-1.23-0.44-1.87-0.57c-1.29-0.26-2.62-0.26-3.91,0
			c-0.641,0.13-1.27,0.32-1.87,0.57c-0.599,0.25-1.19,0.56-1.73,0.92c-0.55,0.36-1.06,0.78-1.52,1.24
			c-0.46,0.46-0.88,0.97-1.24,1.52c-0.359,0.54-0.67,1.12-0.92,1.73c-0.25,0.6-0.439,1.23-0.57,1.87
			c-0.13,0.64-0.199,1.3-0.199,1.95c0,0.65,0.069,1.31,0.199,1.96c0.131,0.63,0.32,1.26,0.57,1.87c0.25,0.6,0.561,1.18,0.92,1.72
			c0.36,0.55,0.78,1.06,1.24,1.52c0.46,0.47,0.97,0.88,1.52,1.25c0.54,0.36,1.13,0.67,1.73,0.92c0.6,0.25,1.229,0.44,1.87,0.57
			c0.639,0.13,1.3,0.19,1.95,0.19c0.65,0,1.31-0.06,1.96-0.19c0.64-0.13,1.26-0.32,1.87-0.57c0.6-0.25,1.18-0.56,1.72-0.92
			c0.55-0.37,1.06-0.78,1.52-1.25c0.471-0.46,0.88-0.97,1.25-1.52c0.36-0.54,0.67-1.12,0.92-1.72c0.25-0.61,0.44-1.24,0.57-1.87
			c0.13-0.65,0.2-1.31,0.2-1.96S428.35,302.92,428.22,302.28z"/>
	</g>
</g>
<g>
	<g>
		<path d="M160.729,399.56c-0.13-0.64-0.319-1.27-0.569-1.87c-0.25-0.61-0.561-1.19-0.92-1.73c-0.36-0.55-0.78-1.06-1.24-1.52
			c-0.46-0.46-0.98-0.88-1.52-1.24c-0.541-0.36-1.121-0.67-1.73-0.92c-0.6-0.25-1.23-0.44-1.87-0.57c-1.29-0.26-2.62-0.26-3.91,0
			c-0.63,0.13-1.26,0.32-1.87,0.57c-0.6,0.25-1.18,0.56-1.72,0.92c-0.549,0.36-1.06,0.78-1.52,1.24c-0.46,0.46-0.88,0.97-1.25,1.52
			c-0.359,0.54-0.67,1.12-0.92,1.73c-0.25,0.6-0.439,1.23-0.569,1.87c-0.129,0.64-0.19,1.3-0.19,1.95c0,0.66,0.06,1.31,0.19,1.96
			c0.13,0.63,0.319,1.26,0.569,1.87c0.25,0.6,0.561,1.18,0.92,1.72c0.37,0.55,0.79,1.059,1.25,1.52c0.459,0.46,0.97,0.88,1.52,1.25
			c0.54,0.36,1.12,0.67,1.72,0.92c0.61,0.25,1.24,0.44,1.87,0.57c0.65,0.13,1.311,0.19,1.96,0.19c2.63,0,5.2-1.06,7.07-2.93
			c0.46-0.46,0.88-0.97,1.24-1.52c0.359-0.54,0.67-1.12,0.92-1.72c0.25-0.61,0.439-1.24,0.569-1.87c0.13-0.65,0.2-1.3,0.2-1.96
			C160.929,400.86,160.859,400.2,160.729,399.56z"/>
	</g>
</g>
<g>
	<g>
		<path d="M512,365.238c0-14.786-7.803-27.784-19.508-35.091c-3.952-30.227-18.375-58.063-40.986-78.872
			c-24.111-22.19-55.447-34.411-88.235-34.411h-79.829l1.656-19.74h5.297c5.522,0,10-4.477,10-10v-46.971c0-5.523-4.478-10-10-10
			h-17.803l-8.121-32.815c-1.104-4.463-5.109-7.598-9.707-7.598h-93.836V23.001h38.666c5.522,0,10-4.477,10-10
			c0-5.523-4.478-10-10-10h-48.666c-5.522,0-10,4.477-10,10v76.738H47.091c-4.598,0-8.603,3.135-9.707,7.598l-8.121,32.815H10
			c-5.523,0-10,4.477-10,10v46.971c0,5.523,4.477,10,10,10h5.297L40.6,498.785c0.435,5.181,4.766,9.164,9.965,9.164l353.011,1.05
			c44.43,0,81.817-32.106,88.847-75.434c6.045-4.914,9.85-12.414,9.85-20.551c0-5.962-1.984-11.469-5.325-15.896
			C506.135,389.53,512,378.056,512,365.238z M488.538,353.598H271.973l0.813-9.697h197.878
			C478.138,343.901,484.727,347.764,488.538,353.598z M301.902,236.863h7.076v13.568c0,5.523,4.478,10,10,10c5.523,0,10-4.477,10-10
			v-13.568h7.076l24.72,21.165c1.886,1.614,4.197,2.404,6.499,2.404c2.82,0,5.623-1.187,7.602-3.496
			c3.592-4.195,3.103-10.508-1.093-14.1l-6.905-5.912c50.517,1.673,93.683,38.364,104.244,86.98
			c-0.152-0.002-0.304-0.003-0.457-0.003H274.463l0.811-9.669h104.379c5.523,0,10-4.477,10-10s-4.477-10-10-10H276.952l3.254-38.794
			L301.902,236.863z M54.918,109.739h192.018l5.052,20.413H49.866L54.918,109.739z M20,150.152h260.395v26.971H20V150.152z
			 M140.928,328.558v34.1c0,5.523,4.477,10,10,10c5.522,0,10-4.477,10-10v-34.1h58.156l-10.063,119.965H91.373L81.311,328.558
			H140.928z M79.633,308.558l-6.039-72.009h67.334v72.009h0H79.633z M160.928,308.558v-72.009h65.873l-6.039,72.009H160.928z
			 M59.761,487.949L35.367,197.123h105.561v19.427H62.72c-2.798,0-5.467,1.172-7.36,3.231c-1.894,2.059-2.839,4.817-2.604,7.605
			L72.213,459.36c0.435,5.181,4.766,9.164,9.965,9.164h136.041c5.199,0,9.53-3.983,9.965-9.164l19.457-231.974
			c0.234-2.788-0.711-5.546-2.604-7.605c-1.894-2.059-4.563-3.231-7.36-3.231H160.93v-19.427h104.1l-2.422,28.878
			c-0.001,0.009-0.002,0.017-0.003,0.026l-21.97,261.922H59.761z M403.645,488.999l-142.947-0.975l3.426-40.85
			c4.206,1.623,7.54,4.092,11.361,6.922c7.746,5.737,17.387,12.877,35.422,12.877h0.142c18.035,0,27.676-7.14,35.422-12.878
			c7.014-5.194,12.081-8.948,23.514-8.948c11.433,0,16.5,3.753,23.514,8.948c7.745,5.737,17.385,12.877,35.417,12.877
			c16.956,0,28.254-9.912,37.333-17.875c0.341-0.299,0.681-0.597,1.02-0.893C456.164,472.488,431.694,488.999,403.645,488.999z
			 M477.663,419.187C477.662,419.187,477.662,419.187,477.663,419.187c-0.031,0.009-0.061,0.017-0.091,0.025
			c-0.029,0.008-0.057,0.016-0.086,0.023c-0.022,0.006-0.044,0.011-0.067,0.017c-0.054,0.013-0.107,0.026-0.162,0.038
			c-1.229,0.271-2.418,0.608-3.572,1.002c-7.936,2.713-14.219,8.148-20.297,13.479c-0.111,0.097-0.221,0.194-0.331,0.291
			c-7.896,6.927-14.717,12.91-24.144,12.91c-11.432,0-16.499-3.754-23.513-8.948c-7.745-5.737-17.385-12.877-35.418-12.877
			c-18.032,0-27.672,7.14-35.417,12.876c-7.015,5.195-12.083,8.949-23.519,8.949h-0.142c-11.436,0-16.504-3.754-23.519-8.949
			c-5.439-4.027-11.888-8.804-21.553-11.25l1.694-20.199h208.308c3.551,0,6.439,2.889,6.439,6.44
			C482.273,415.87,480.358,418.402,477.663,419.187z M470.664,386.574H269.207l1.088-12.976h219.998
			C487.035,381.219,479.463,386.574,470.664,386.574z"/>
	</g>
</g>
<g>
</g>
<g>
</g>
<g>
</g>
<g>
</g>
<g>
</g>
<g>
</g>
<g>
</g>
<g>
</g>
<g>
</g>
<g>
</g>
<g>
</g>
<g>
</g>
<g>
</g>
<g>
</g>
<g>
</g>
</svg>
