<?xml version="1.0" encoding="iso-8859-1"?>
<!-- Generator: Adobe Illustrator 19.0.0, SVG Export Plug-In . SVG Version: 6.00 Build 0)  -->
<svg version="1.1" id="Capa_1" xmlns="http://www.w3.org/2000/svg" xmlns:xlink="http://www.w3.org/1999/xlink" x="0px" y="0px"
	 viewBox="0 0 512 512" style="enable-background:new 0 0 512 512;" xml:space="preserve">
<g>
	<g>
		<path d="M314.387,357.083c-0.129-0.641-0.32-1.27-0.57-1.87c-0.25-0.61-0.56-1.19-0.92-1.73c-0.359-0.55-0.779-1.06-1.239-1.52
			c-2.33-2.32-5.78-3.39-9.03-2.73c-0.63,0.12-1.26,0.32-1.87,0.57c-0.6,0.25-1.18,0.56-1.72,0.92c-0.55,0.36-1.061,0.78-1.521,1.24
			c-0.46,0.46-0.88,0.97-1.25,1.52c-0.359,0.539-0.67,1.12-0.92,1.73c-0.25,0.599-0.439,1.229-0.569,1.87
			c-0.131,0.639-0.191,1.3-0.191,1.949c0,0.65,0.06,1.31,0.191,1.95c0.13,0.641,0.319,1.271,0.569,1.88
			c0.25,0.601,0.561,1.181,0.92,1.721c0.37,0.55,0.79,1.06,1.25,1.52c0.461,0.46,0.971,0.88,1.521,1.24
			c0.54,0.36,1.12,0.67,1.72,0.92c0.61,0.25,1.24,0.45,1.87,0.58c0.65,0.129,1.31,0.189,1.96,0.189s1.31-0.059,1.95-0.189
			c0.64-0.13,1.269-0.33,1.87-0.58c0.609-0.25,1.189-0.56,1.729-0.92c0.55-0.36,1.061-0.78,1.521-1.24
			c0.46-0.46,0.88-0.97,1.239-1.52c0.361-0.54,0.67-1.12,0.92-1.721c0.25-0.61,0.44-1.239,0.57-1.88c0.13-0.639,0.2-1.3,0.2-1.95
			C314.587,358.383,314.517,357.723,314.387,357.083z"/>
	</g>
</g>
<g>
	<g>
		<path d="M397.072,254.871c1.957-15.773-2.947-30.844-14.079-42.897c-1.116-1.209-2.285-2.381-3.504-3.516
			c8.255-26.166,6.162-49.362-6.168-67.422c-8.426-12.341-21.311-21.929-38.202-28.593c18.197-42.189-10.773-63.736-32.364-79.796
			c-10.699-7.957-20.805-15.474-24.05-23.742c-1.386-3.528-4.177-6.383-7.657-7.832c-3.488-1.453-7.32-1.432-10.79,0.067
			c-14.051,6.061-59.076,28.259-67.297,66.339c-5.464,3.914-15.684,12.077-24.519,23.855
			c-15.567,20.753-20.194,43.579-13.577,66.448c-5.881,4.709-14.887,12.822-22.889,23.781
			c-16.309,22.336-21.358,46.595-14.784,70.566c-5.437,5.907-8.762,13.787-8.762,22.43c0,11.735,6.129,22.064,15.354,27.956
			l46.218,201.718c1.041,4.545,5.085,7.768,9.748,7.768h152.498c4.662,0,8.706-3.222,9.747-7.767l46.219-201.719
			c9.224-5.891,15.353-16.221,15.353-27.955C403.568,267.193,401.152,260.381,397.072,254.871z M262.892,21.937
			c6.301,10.674,17.269,18.831,27.927,26.759c24.345,18.107,38.097,30.275,25.065,57.821c-13.789-3.222-29.472-4.975-46.895-5.199
			c-23.36-0.299-42.299-10.453-56.348-30.19C218.459,46.061,249.067,28.642,262.892,21.937z M184.101,103.79
			c5.233-7.081,11.194-12.651,15.761-16.397c17.449,21.885,41.066,33.566,68.869,33.923c43.528,0.559,74.807,11.566,88.073,30.997
			c7.974,11.678,9.752,26.484,5.329,44.125c-24.857-12.773-60.791-16.61-104.325-10.773c-41.834,5.606-67.006-13.781-82.503-29.667
			C168.819,138.03,171.774,120.473,184.101,103.79z M147.797,193.816c6.11-8.479,13.075-15.024,17.985-19.117
			c7.397,6.999,17.473,15.102,30.576,21.411c19.375,9.328,40.944,12.484,64.107,9.379c44.614-5.975,80.482-0.975,100.665,13.717
			c0.406,0.361,0.844,0.692,1.313,0.988c2.148,1.666,4.104,3.449,5.858,5.349c4.563,4.941,7.453,10.517,8.611,16.508
			c-2.1-0.419-4.271-0.639-6.492-0.639h-228.84c-2.124,0-4.202,0.201-6.216,0.585C132.313,225.689,136.475,209.525,147.797,193.816z
			 M172.459,425.401l-26.967-117.694h144.661L172.459,425.401z M324.28,492.001h-86.909L350.113,379.26L324.28,492.001z
			 M358.519,342.568L209.088,492.001h-21.37l-0.365-1.592l96.019-96.019c3.905-3.905,3.905-10.237,0-14.143
			c-3.906-3.904-10.236-3.904-14.143,0l-87.149,87.149l-4.349-18.985l140.705-140.704h48.069L358.519,342.568z M370.688,287.704
			H141.311c-7.128-0.143-12.882-5.985-12.882-13.145c0.001-7.251,5.899-13.15,13.15-13.15h228.84c3.485,0,6.657,1.363,9.013,3.583
			c0.058,0.057,0.116,0.113,0.175,0.168c2.443,2.389,3.962,5.72,3.962,9.399C383.569,281.72,377.815,287.562,370.688,287.704z"/>
	</g>
</g>
<g>
	<g>
		<path d="M219.072,323.432c-3.906-3.904-10.238-3.904-14.143,0l-22.5,22.5c-3.905,3.906-3.905,10.238,0,14.143
			c1.952,1.952,4.512,2.929,7.071,2.929s5.119-0.976,7.072-2.929l22.5-22.5C222.977,333.669,222.977,327.337,219.072,323.432z"/>
	</g>
</g>
<g>
	<g>
		<path d="M320.267,439.18c-3.906-3.904-10.236-3.904-14.142,0l-22.5,22.5c-3.905,3.906-3.905,10.238,0,14.143
			c1.953,1.952,4.512,2.929,7.071,2.929c2.56,0,5.118-0.976,7.071-2.929l22.5-22.5C324.172,449.417,324.172,443.085,320.267,439.18z
			"/>
	</g>
</g>
<g>
</g>
<g>
</g>
<g>
</g>
<g>
</g>
<g>
</g>
<g>
</g>
<g>
</g>
<g>
</g>
<g>
</g>
<g>
</g>
<g>
</g>
<g>
</g>
<g>
</g>
<g>
</g>
<g>
</g>
</svg>
