<?xml version="1.0" encoding="utf-8"?>
<!-- Generator: Adobe Illustrator 23.0.1, SVG Export Plug-In . SVG Version: 6.00 Build 0)  -->
<svg version="1.1" id="Layer_1" xmlns="http://www.w3.org/2000/svg" xmlns:xlink="http://www.w3.org/1999/xlink" x="0px" y="0px"
	 viewBox="0 0 112 36" style="enable-background:new 0 0 112 36;" xml:space="preserve">
<style type="text/css">
	.st0{fill:#FECA57;}
	.st1{fill:#FCC419;}
	.st2{enable-background:new    ;}
	.st3{fill:#FFFFFF;}
	.st4{fill:#E03131;}
</style>
<path class="st0" d="M30.1,21.3v-0.1c0,0,0-0.1-0.1-0.1L29.9,21l-0.1-0.1c0,0-0.1,0-0.1-0.1h-0.1c-0.1,0-0.2,0-0.3,0h-0.1
	c0,0-0.1,0-0.1,0.1L29,21l-0.1,0.1c0,0,0,0.1-0.1,0.1v0.1v0.1v0.1v0.1c0,0,0,0.1,0.1,0.1l0.1,0.1l0.1,0.1c0,0,0.1,0,0.1,0.1h0.1h0.1
	h0.1h0.1c0,0,0.1,0,0.1-0.1l0.1-0.1l0.1-0.1c0,0,0-0.1,0.1-0.1v-0.1v-0.1C30.1,21.3,30.1,21.3,30.1,21.3z"/>
<path class="st0" d="M11.3,28.1V28c0,0,0-0.1-0.1-0.1l-0.1-0.1L11,27.7c0,0-0.1,0-0.1-0.1h-0.1c-0.1,0-0.2,0-0.3,0h-0.1
	c0,0-0.1,0-0.1,0.1l-0.1,0.1l-0.1,0.1c0,0,0,0.1-0.1,0.1v0.1v0.1v0.1v0.1c0,0,0,0.1,0.1,0.1l0.1,0.1l0.1,0.1c0,0,0.1,0,0.1,0.1h0.1
	h0.1c0.2,0,0.4-0.1,0.5-0.2l0.1-0.1c0,0,0-0.1,0.1-0.1v-0.1v-0.1C11.3,28.2,11.3,28.1,11.3,28.1z"/>
<path class="st1" d="M36,25.7c0-1-0.5-2-1.4-2.5c-0.3-2.1-1.3-4.1-2.9-5.5c-1.7-1.6-3.9-2.4-6.2-2.4h-5.6l0.1-1.4h0.4
	c0.4,0,0.7-0.3,0.7-0.7V9.9c0-0.4-0.3-0.7-0.7-0.7h-1.3l-0.6-2.3c-0.1-0.3-0.4-0.5-0.7-0.5h-6.6V1.6H14c0.4,0,0.7-0.3,0.7-0.7
	S14.4,0.2,14,0.2h-3.4c-0.4,0-0.7,0.3-0.7,0.7v5.4H3.3C3,6.3,2.7,6.5,2.6,6.8L2.1,9.2H0.7C0.3,9.2,0,9.5,0,9.9v3.3
	c0,0.4,0.3,0.7,0.7,0.7h0.4l1.8,21.2c0,0.4,0.3,0.6,0.7,0.6l24.8,0.1c3.1,0,5.8-2.3,6.2-5.3c0.4-0.3,0.7-0.9,0.7-1.4
	c0-0.4-0.1-0.8-0.4-1.1C35.6,27.4,36,26.6,36,25.7z M34.4,24.9H19.1l0.1-0.7h13.9C33.6,24.2,34.1,24.5,34.4,24.9z M21.2,16.7h0.5v1
	c0,0.4,0.3,0.7,0.7,0.7c0.4,0,0.7-0.3,0.7-0.7v-1h0.5l1.7,1.5c0.1,0.1,0.3,0.2,0.5,0.2s0.4-0.1,0.5-0.2c0.3-0.3,0.2-0.7-0.1-1
	l-0.5-0.4c3.6,0.1,6.6,2.7,7.3,6.1l0,0H19.3l0.1-0.7h7.3c0.4,0,0.7-0.3,0.7-0.7c0-0.4-0.3-0.7-0.7-0.7h-7.2l0.2-2.7L21.2,16.7z
	 M3.9,7.7h13.5l0.4,1.4H3.5L3.9,7.7z M1.4,10.6h18.3v1.9H1.4V10.6z M9.9,23.1v2.4c0,0.4,0.3,0.7,0.7,0.7s0.7-0.3,0.7-0.7v-2.4h4.1
	l-0.7,8.4H6.4l-0.7-8.4H9.9z M5.6,21.7l-0.4-5.1h4.7v5.1H5.6z M11.3,21.7v-5.1h4.6l-0.4,5.1H11.3z M4.2,34.3L2.5,13.9h7.4v1.4H4.4
	c-0.2,0-0.4,0.1-0.5,0.2c-0.1,0.1-0.2,0.3-0.2,0.5l1.4,16.3c0,0.4,0.3,0.6,0.7,0.6h9.6c0.4,0,0.7-0.3,0.7-0.6L17.4,16
	c0-0.2,0-0.4-0.2-0.5c-0.1-0.1-0.3-0.2-0.5-0.2h-5.4v-1.4h7.3l-0.2,2l0,0l-1.5,18.4H4.2z M28.4,34.4l-10.1-0.1l0.2-2.9
	c0.3,0.1,0.5,0.3,0.8,0.5c0.5,0.4,1.2,0.9,2.5,0.9l0,0c1.3,0,1.9-0.5,2.5-0.9c0.5-0.4,0.8-0.6,1.7-0.6c0.8,0,1.2,0.3,1.7,0.6
	c0.5,0.4,1.2,0.9,2.5,0.9c1.2,0,2-0.7,2.6-1.3c0,0,0,0,0.1-0.1C32.1,33.2,30.4,34.4,28.4,34.4z M33.6,29.5L33.6,29.5L33.6,29.5
	L33.6,29.5L33.6,29.5L33.6,29.5c-0.1,0-0.2,0-0.3,0.1c-0.6,0.2-1,0.6-1.4,0.9l0,0c-0.6,0.5-1,0.9-1.7,0.9c-0.8,0-1.2-0.3-1.7-0.6
	c-0.5-0.4-1.2-0.9-2.5-0.9s-1.9,0.5-2.5,0.9c-0.5,0.4-0.8,0.6-1.7,0.6l0,0c-0.8,0-1.2-0.3-1.7-0.6c-0.4-0.3-0.8-0.6-1.5-0.8l0.1-1.4
	h14.6c0.2,0,0.5,0.2,0.5,0.5C33.9,29.2,33.8,29.4,33.6,29.5z M33.1,27.2H18.9l0.1-0.9h15.5C34.2,26.8,33.7,27.2,33.1,27.2z"/>
<g class="st2">
	<path class="st3" d="M47.4,11.9h-3.7v3.8h-1.9V6.4h6.1v1.6h-4.2v2.4h3.7V11.9z"/>
	<path class="st3" d="M48.4,12.2c0-0.7,0.1-1.3,0.4-1.9s0.7-1,1.2-1.3c0.5-0.3,1.1-0.4,1.7-0.4c0.9,0,1.7,0.3,2.3,0.9
		c0.6,0.6,0.9,1.4,1,2.4l0,0.5c0,1.1-0.3,1.9-0.9,2.6c-0.6,0.6-1.4,1-2.4,1c-1,0-1.8-0.3-2.4-1C48.7,14.3,48.4,13.4,48.4,12.2
		L48.4,12.2z M50.3,12.4c0,0.7,0.1,1.2,0.4,1.5c0.3,0.4,0.6,0.5,1.1,0.5c0.5,0,0.8-0.2,1.1-0.5c0.3-0.3,0.4-0.9,0.4-1.7
		c0-0.7-0.1-1.2-0.4-1.5c-0.3-0.4-0.6-0.5-1.1-0.5c-0.5,0-0.8,0.2-1.1,0.5C50.4,11.1,50.3,11.6,50.3,12.4z"/>
	<path class="st3" d="M55.9,12.2c0-0.7,0.1-1.3,0.4-1.9c0.3-0.5,0.7-1,1.2-1.3c0.5-0.3,1.1-0.4,1.7-0.4c0.9,0,1.7,0.3,2.3,0.9
		c0.6,0.6,0.9,1.4,1,2.4l0,0.5c0,1.1-0.3,1.9-0.9,2.6c-0.6,0.6-1.4,1-2.4,1c-1,0-1.8-0.3-2.4-1C56.2,14.3,55.9,13.4,55.9,12.2
		L55.9,12.2z M57.8,12.4c0,0.7,0.1,1.2,0.4,1.5c0.2,0.4,0.6,0.5,1.1,0.5c0.5,0,0.8-0.2,1.1-0.5c0.3-0.3,0.4-0.9,0.4-1.7
		c0-0.7-0.1-1.2-0.4-1.5c-0.3-0.4-0.6-0.5-1.1-0.5c-0.5,0-0.8,0.2-1.1,0.5C57.9,11.1,57.8,11.6,57.8,12.4z"/>
	<path class="st3" d="M63.4,12.2c0-1.1,0.2-2,0.7-2.6c0.5-0.6,1.2-1,2-1c0.7,0,1.2,0.3,1.7,0.8V5.9h1.9v9.9H68L67.9,15
		c-0.5,0.6-1.1,0.9-1.8,0.9c-0.8,0-1.5-0.3-2-1C63.6,14.3,63.4,13.4,63.4,12.2z M65.3,12.4c0,0.7,0.1,1.2,0.3,1.5
		c0.2,0.3,0.6,0.5,1,0.5c0.6,0,1-0.2,1.2-0.7v-2.8c-0.2-0.5-0.6-0.7-1.2-0.7C65.7,10.2,65.3,10.9,65.3,12.4z"/>
</g>
<g class="st2">
	<path class="st4" d="M49.1,26.9c-0.1,1-0.4,1.8-1.1,2.4c-0.7,0.6-1.6,0.9-2.7,0.9c-1.2,0-2.2-0.4-2.8-1.2c-0.7-0.8-1-1.9-1-3.3V25
		c0-0.9,0.2-1.7,0.5-2.4c0.3-0.7,0.8-1.2,1.4-1.6c0.6-0.4,1.3-0.6,2.1-0.6c1.1,0,2,0.3,2.6,0.9c0.7,0.6,1,1.4,1.2,2.5h-1.9
		c0-0.6-0.2-1-0.5-1.3c-0.3-0.3-0.7-0.4-1.3-0.4c-0.6,0-1.1,0.2-1.5,0.7c-0.3,0.5-0.5,1.2-0.5,2.2v0.7c0,1,0.2,1.8,0.5,2.2
		c0.3,0.5,0.8,0.7,1.5,0.7c0.6,0,1-0.1,1.3-0.4c0.3-0.3,0.5-0.7,0.5-1.3H49.1z"/>
	<path class="st4" d="M50,26.5c0-0.7,0.1-1.3,0.4-1.9c0.3-0.5,0.7-1,1.2-1.3c0.5-0.3,1.1-0.4,1.7-0.4c0.9,0,1.7,0.3,2.3,0.9
		c0.6,0.6,0.9,1.4,1,2.4l0,0.5c0,1.1-0.3,1.9-0.9,2.6c-0.6,0.6-1.4,1-2.4,1c-1,0-1.8-0.3-2.4-1C50.3,28.5,50,27.7,50,26.5L50,26.5z
		 M51.8,26.6c0,0.7,0.1,1.2,0.4,1.5c0.3,0.4,0.6,0.5,1.1,0.5c0.5,0,0.8-0.2,1.1-0.5c0.3-0.3,0.4-0.9,0.4-1.7c0-0.7-0.1-1.2-0.4-1.5
		c-0.3-0.4-0.6-0.5-1.1-0.5c-0.5,0-0.8,0.2-1.1,0.5C52,25.3,51.8,25.8,51.8,26.6z"/>
	<path class="st4" d="M59.5,23l0.1,0.8c0.5-0.6,1.2-0.9,2-0.9c0.9,0,1.5,0.4,1.9,1.1c0.5-0.7,1.2-1.1,2.1-1.1c0.8,0,1.3,0.2,1.7,0.7
		c0.4,0.4,0.6,1.1,0.6,2V30h-1.9v-4.5c0-0.4-0.1-0.7-0.2-0.9c-0.2-0.2-0.4-0.3-0.8-0.3c-0.6,0-0.9,0.3-1.2,0.8l0,4.8h-1.9v-4.5
		c0-0.4-0.1-0.7-0.2-0.9c-0.2-0.2-0.4-0.3-0.8-0.3c-0.5,0-0.9,0.2-1.2,0.7V30h-1.9v-7H59.5z"/>
	<path class="st4" d="M71,23l0.1,0.8c0.5-0.6,1.2-0.9,2-0.9c0.9,0,1.5,0.4,1.9,1.1c0.5-0.7,1.2-1.1,2.1-1.1c0.8,0,1.3,0.2,1.7,0.7
		c0.4,0.4,0.6,1.1,0.6,2V30h-1.9v-4.5c0-0.4-0.1-0.7-0.2-0.9c-0.2-0.2-0.4-0.3-0.8-0.3c-0.6,0-0.9,0.3-1.2,0.8l0,4.8h-1.9v-4.5
		c0-0.4-0.1-0.7-0.2-0.9c-0.2-0.2-0.4-0.3-0.8-0.3c-0.5,0-0.9,0.2-1.2,0.7V30h-1.9v-7H71z"/>
	<path class="st4" d="M83.9,30.1c-1,0-1.9-0.3-2.5-0.9c-0.6-0.6-1-1.5-1-2.5v-0.2c0-0.7,0.1-1.3,0.4-1.9c0.3-0.6,0.7-1,1.2-1.3
		c0.5-0.3,1.1-0.4,1.7-0.4c1,0,1.7,0.3,2.3,0.9c0.5,0.6,0.8,1.5,0.8,2.6v0.8h-4.5c0.1,0.5,0.2,0.8,0.5,1.1c0.3,0.3,0.7,0.4,1.2,0.4
		c0.7,0,1.3-0.3,1.7-0.8l0.9,1c-0.3,0.4-0.7,0.7-1.1,0.9C85,30,84.5,30.1,83.9,30.1z M83.7,24.4c-0.4,0-0.7,0.1-0.9,0.4
		c-0.2,0.3-0.4,0.6-0.4,1.1h2.6v-0.1c0-0.4-0.1-0.7-0.3-1C84.4,24.5,84.1,24.4,83.7,24.4z"/>
	<path class="st4" d="M91.8,24.8c-0.3,0-0.5-0.1-0.7-0.1c-0.7,0-1.2,0.2-1.4,0.7V30h-1.9v-7h1.8l0.1,0.8c0.4-0.6,0.9-1,1.6-1
		c0.2,0,0.4,0,0.6,0.1L91.8,24.8z"/>
	<path class="st4" d="M95.4,28.6c0.3,0,0.6-0.1,0.8-0.3c0.2-0.2,0.3-0.4,0.3-0.8h1.8c0,0.5-0.1,0.9-0.4,1.3c-0.3,0.4-0.6,0.7-1,0.9
		c-0.4,0.2-0.9,0.3-1.5,0.3c-1,0-1.8-0.3-2.4-1s-0.9-1.5-0.9-2.6v-0.1c0-1.1,0.3-1.9,0.9-2.6c0.6-0.6,1.4-1,2.4-1
		c0.9,0,1.6,0.2,2.1,0.7c0.5,0.5,0.8,1.2,0.8,2h-1.8c0-0.4-0.1-0.7-0.3-0.9c-0.2-0.2-0.5-0.3-0.9-0.3c-0.4,0-0.8,0.2-1,0.5
		c-0.2,0.3-0.3,0.8-0.3,1.5v0.2c0,0.7,0.1,1.2,0.3,1.6C94.7,28.5,95,28.6,95.4,28.6z"/>
	<path class="st4" d="M102.7,30.1c-1,0-1.9-0.3-2.5-0.9c-0.6-0.6-1-1.5-1-2.5v-0.2c0-0.7,0.1-1.3,0.4-1.9c0.3-0.6,0.7-1,1.2-1.3
		c0.5-0.3,1.1-0.4,1.7-0.4c1,0,1.7,0.3,2.3,0.9c0.5,0.6,0.8,1.5,0.8,2.6v0.8h-4.5c0.1,0.5,0.2,0.8,0.5,1.1c0.3,0.3,0.7,0.4,1.2,0.4
		c0.7,0,1.3-0.3,1.7-0.8l0.9,1c-0.3,0.4-0.7,0.7-1.1,0.9C103.8,30,103.2,30.1,102.7,30.1z M102.5,24.4c-0.4,0-0.7,0.1-0.9,0.4
		c-0.2,0.3-0.4,0.6-0.4,1.1h2.6v-0.1c0-0.4-0.1-0.7-0.3-1C103.2,24.5,102.8,24.4,102.5,24.4z"/>
</g>
</svg>
