<svg width="529" height="289" viewBox="0 0 529 289" fill="none" xmlns="http://www.w3.org/2000/svg">
<path d="M362.681 247.248C412.048 246.665 461.414 246.999 510.777 248.25C515.024 248.358 519.431 248.496 523.181 249.621C526.931 250.746 529.817 253.159 528.791 255.478C509.521 256.048 490.231 256.224 470.921 256.007C466.716 258.067 462.099 261.171 464.684 263.95C466.472 265.872 470.886 266.445 474.747 266.449C481.738 266.458 488.758 265.31 495.647 265.983C502.535 266.657 509.408 270.281 507.391 274.044C505.858 276.901 500.045 278.315 494.754 278.568C489.464 278.82 484.047 278.295 478.875 278.972C473.961 279.615 469.703 281.286 465.104 282.452C457.849 284.292 449.807 284.86 441.894 285.344C381.137 289.057 319.875 289.027 258.759 288.994C234.017 288.98 208.939 288.943 185.047 285.329C171.427 283.27 158.377 280.071 144.586 278.412C128.112 276.429 111.087 276.698 94.241 276.758C64.6669 276.862 35.1178 276.292 5.59361 275.047C3.39654 274.955 0.699684 274.641 0.106754 273.448C-0.585214 272.056 2.22308 270.97 4.59687 270.415C18.0477 267.3 31.7247 265.259 45.4986 264.311C52.4743 263.821 59.6626 263.571 66.0785 261.956C72.4943 260.34 78.0995 256.953 78.0392 253.002C78.0209 251.796 77.5125 250.507 78.518 249.442C79.8533 248.028 83.1385 247.704 85.973 247.55C117.395 245.841 148.988 245.128 180.552 245.415C191.655 245.516 202.804 245.739 213.829 244.991C222.862 244.378 231.71 243.119 240.612 242.062C252.562 240.644 304.567 233.296 312.153 239.258C317.832 243.721 306.107 244.684 321.339 246.505C334.601 248.091 349.23 247.407 362.681 247.248Z" fill="#565656"/>
<path d="M170.491 226.865C170.491 226.865 152.184 263.104 167.765 263.104C183.346 263.104 379.664 263.883 385.118 253.752C388.938 246.654 386.832 221.385 385.228 206.891C384.916 204.074 383.538 201.483 381.376 199.652C379.214 197.82 376.432 196.887 373.604 197.044C331.145 199.388 172.528 208.076 173.218 206.992C174.581 204.849 173.608 205.433 173.608 205.433C173.608 205.433 167.375 225.306 170.491 226.865Z" fill="#FECA57"/>
<path opacity="0.1" d="M385.618 206.891C385.306 204.074 383.928 201.483 381.766 199.652C379.604 197.82 376.822 196.887 373.993 197.044C331.535 199.388 172.918 208.076 173.608 206.992C174.971 204.849 173.997 205.433 173.997 205.433C173.997 205.433 172.606 209.87 171.467 214.715C171.628 214.699 171.749 214.851 171.223 215.776C171.176 215.985 171.13 216.194 171.085 216.403C177.438 217.031 329.786 208.686 371.267 206.396C374.096 206.239 376.877 207.172 379.039 209.004C381.201 210.835 382.58 213.426 382.891 216.243C384.083 227.019 385.553 243.749 384.659 254.541C385.003 254.354 385.295 254.082 385.507 253.752C389.328 246.654 387.221 221.385 385.618 206.891Z" fill="black"/>
<path d="M192.312 172.555C190.283 171.933 187.714 171.13 187.946 169.82C188.069 169.124 189 168.58 189.675 167.997C190.975 166.872 191.326 165.287 189.929 164.201C188.532 163.114 185.167 162.969 183.935 164.119C183.301 164.71 183.339 165.452 183.012 166.12C181.991 168.204 177.859 169.119 174.349 169.929C170.839 170.738 166.913 172.245 167.242 174.401C167.602 176.753 173.017 178.84 170.838 180.845C170.048 181.572 168.386 181.978 168.033 182.81C167.784 183.395 168.284 183.991 168.769 184.525L172.217 188.325C173.589 189.837 175.002 191.482 174.543 193.165C173.632 196.501 166.23 197.777 160.363 197.402C158.214 197.265 155.689 197.077 154.213 197.98C153.075 198.677 153.077 199.761 153.455 200.689C154.428 203.077 157.542 205.145 161.527 206.051C157.061 206.932 155.307 210.648 158.391 212.695C156.626 213.303 154.718 213.357 152.921 212.852C151.396 214.257 152.293 216.184 154.227 217.413C156.162 218.642 158.902 219.333 161.556 219.99L159.072 222.313C160.869 223.717 164.75 223.222 167.367 222.334C169.984 221.447 172.824 220.255 175.757 220.72C178.507 221.155 180.587 222.99 183.387 222.676C185.557 222.432 186.589 221.037 187.265 219.833L190.139 214.715C194.23 215.355 198.532 212.551 196.889 210.314C201.467 210.806 205.973 207.832 204.47 205.311C206.908 207.192 208.625 209.377 209.464 211.669C209.84 212.693 210.068 213.775 211.09 214.643C211.758 215.14 212.532 215.476 213.352 215.625C214.171 215.773 215.014 215.73 215.814 215.498C214.979 217.118 214.303 219.006 216.019 220.381C217.734 221.755 222.684 221.365 222.466 219.681C225.082 220.806 228.013 221.863 231.283 221.947C234.552 222.031 238.13 220.786 238.428 218.922C243.036 220.442 247.856 221.218 252.707 221.221C253.12 219.974 256.002 219.571 258.157 219.875C260.312 220.18 262.311 220.913 264.53 220.914C266.75 220.915 269.137 219.579 268.001 218.488C272.675 219.466 277.473 219.709 282.222 219.206C286.702 218.73 290.948 217.6 295.484 217.356C300.085 217.076 304.693 217.803 308.984 219.489C310.471 220.113 312.32 220.898 313.953 220.408C314.88 220.131 315.331 219.532 315.96 219.054C318.67 216.997 324.21 217.392 328.485 218.2C332.76 219.009 337.732 219.982 341.478 218.553C342.891 218.014 343.932 217.181 345.436 216.728C350.821 215.106 357.266 219.261 362.982 218.066C364.844 217.677 366.354 216.745 368.326 216.63C371.823 216.427 374.134 218.798 377.535 219.308C381.063 219.837 384.888 217.689 384.027 215.662C387.418 215.738 390.799 215.267 394.041 214.27L392.44 211.386C396.431 211.321 399.367 208.459 397.518 206.435C401.52 205.673 404.685 203.621 405.508 201.254C406.33 198.888 404.779 196.299 401.591 194.719C399.709 193.787 397.238 193.131 396.163 191.847C395.388 190.922 395.501 189.846 395.2 188.835C394.541 186.622 391.683 184.669 387.991 183.907C386.388 183.576 384.633 183.451 383.182 182.94C381.73 182.429 380.681 181.322 381.519 180.473C381.963 180.024 382.817 179.759 383.369 179.351C385.608 177.697 381.769 175.604 378.491 174.675L386.318 174.419L387.999 166.795C384.902 169.315 376.869 168.785 374.856 165.928C377.371 166.754 380.743 165.698 381.972 164.197C383.202 162.695 382.9 160.949 382.571 159.302C382.54 158.892 382.404 158.498 382.175 158.158C381.947 157.817 381.634 157.541 381.267 157.357C380.501 156.992 379.28 156.84 379.029 156.288C378.772 155.725 379.764 155.227 379.911 154.651C380.193 153.546 377.653 153.059 375.938 152.524C371.891 151.263 369.932 147.719 365.328 147.834C360.76 147.948 359.483 151.438 359.48 154.053C359.477 156.668 357.931 160.165 353.359 160.117C351.533 160.098 349.941 159.441 348.484 158.813L335.389 153.163C333.659 152.358 331.859 151.712 330.012 151.235C327.371 150.618 324.453 150.545 321.602 150.48L303.285 150.064C302.352 149.991 301.414 150.071 300.507 150.303C299.545 150.625 299.077 151.258 298.498 151.802C295.947 154.198 289.95 155.136 285.622 153.817C284.475 153.467 283.447 152.985 282.231 152.721C278.401 151.891 274.382 153.427 270.403 153.982C263.879 154.892 255.773 153.326 251.071 156.066C249.503 156.98 248.671 158.23 247.218 159.204C245.765 160.177 243.143 160.838 241.311 160.102C241.541 161.89 241.751 163.755 240.541 165.408C239.332 167.061 236.23 168.41 233.183 167.993C231.565 167.566 231.693 166.206 232.458 165.285C233.223 164.365 234.396 163.424 234.014 162.429C233.636 161.442 231.905 160.867 230.61 160.179C229.315 159.49 228.452 158.186 229.827 157.55C228.9 156.359 225.57 156.504 224.105 157.503C222.64 158.502 222.494 159.909 222.334 161.21C222.174 162.511 221.826 163.935 220.128 164.806C217.236 166.289 211.682 165.52 209.764 167.452C209.154 168.066 209.118 168.806 208.77 169.483C207.213 172.505 200.494 173.288 195.002 173.535C194.886 174.163 194.861 174.806 194.926 175.442C196.804 174.628 193.674 172.973 192.312 172.555Z" fill="#61AB43"/>
<path opacity="0.1" d="M382.572 169.103C382.9 170.751 383.202 172.497 381.973 173.998C381.79 174.215 381.584 174.411 381.357 174.581C383.011 174.527 384.665 174.473 386.318 174.419C386.879 171.878 387.439 169.337 387.999 166.795C386.716 167.839 384.586 168.358 382.388 168.407C382.466 168.634 382.528 168.867 382.572 169.103V169.103Z" fill="black"/>
<path opacity="0.1" d="M384.017 178.083C383.821 177.052 382.123 176.007 380.221 175.259C378.547 176.055 376.643 176.222 374.856 175.73C376.244 177.7 380.496 178.563 384.017 178.083Z" fill="black"/>
<path opacity="0.1" d="M386.447 183.638C386.404 183.832 386.361 184.026 386.319 184.221C383.709 184.306 381.1 184.391 378.491 184.477C381.769 185.405 385.609 187.499 383.369 189.153C382.817 189.561 381.963 189.826 381.519 190.275C380.682 191.124 381.73 192.231 383.182 192.741C384.634 193.252 386.388 193.378 387.992 193.709C391.683 194.471 394.541 196.424 395.2 198.637C395.502 199.648 395.389 200.723 396.163 201.648C397.239 202.933 399.71 203.588 401.591 204.521C401.773 204.611 401.947 204.705 402.118 204.801C403.819 203.839 405.041 202.597 405.508 201.254C406.331 198.888 404.779 196.299 401.591 194.719C399.71 193.787 397.239 193.131 396.163 191.847C395.389 190.922 395.502 189.846 395.2 188.835C394.541 186.623 391.683 184.669 387.992 183.907C387.487 183.803 386.967 183.72 386.447 183.638Z" fill="black"/>
<path opacity="0.1" d="M157.125 218.744C157.734 217.446 159.29 216.294 161.527 215.852C159.39 215.408 157.377 214.5 155.629 213.191C154.714 213.218 153.801 213.103 152.921 212.852C151.396 214.257 152.293 216.184 154.227 217.413C155.139 217.965 156.112 218.412 157.125 218.744V218.744Z" fill="black"/>
<path opacity="0.1" d="M170.932 180.749C172.046 180.332 173.188 179.991 174.349 179.73C177.859 178.921 181.991 178.006 183.012 175.922C183.339 175.254 183.301 174.512 183.935 173.92C185.167 172.77 188.532 172.916 189.929 174.002C191.326 175.089 190.975 176.673 189.675 177.798C189 178.382 188.069 178.925 187.946 179.621C187.715 180.931 190.283 181.735 192.312 182.357C193.268 182.665 194.162 183.136 194.955 183.751C194.972 183.612 194.989 183.474 195.002 183.336C200.494 183.09 207.213 182.307 208.77 179.285C209.118 178.608 209.154 177.867 209.764 177.253C211.682 175.321 217.236 176.091 220.129 174.607C221.826 173.737 222.174 172.312 222.334 171.012C222.494 169.711 222.64 168.304 224.105 167.305C225.57 166.306 228.901 166.161 229.827 167.352C228.452 167.987 229.316 169.292 230.61 169.98C231.905 170.669 233.636 171.243 234.015 172.231C234.396 173.226 233.223 174.167 232.458 175.087C231.693 176.007 231.565 177.367 233.183 177.795C236.23 178.212 239.332 176.863 240.542 175.209C241.751 173.556 241.541 171.691 241.311 169.904C243.144 170.64 245.765 169.979 247.218 169.005C248.671 168.031 249.503 166.782 251.071 165.868C255.773 163.127 263.88 164.693 270.403 163.784C274.382 163.229 278.401 161.692 282.231 162.523C283.447 162.786 284.475 163.269 285.623 163.618C289.95 164.938 295.947 164 298.498 161.604C299.077 161.059 299.545 160.426 300.507 160.105C301.414 159.873 302.352 159.792 303.285 159.866C309.391 160.004 315.497 160.143 321.603 160.282C324.453 160.347 327.371 160.42 330.012 161.036C331.86 161.514 333.66 162.16 335.39 162.965C339.754 164.848 344.119 166.731 348.484 168.614C349.941 169.243 351.533 169.9 353.359 169.919C357.931 169.967 359.477 166.469 359.48 163.854C359.483 161.239 360.76 157.75 365.328 157.636C369.932 157.521 371.892 161.065 375.938 162.326C377.653 162.86 380.193 163.348 379.911 164.453C379.78 164.966 378.981 165.417 378.989 165.908C380.129 165.639 381.165 165.045 381.973 164.197C383.202 162.695 382.9 160.949 382.572 159.302C382.541 158.892 382.404 158.498 382.175 158.158C381.947 157.817 381.634 157.541 381.267 157.357C380.501 156.992 379.28 156.84 379.029 156.288C378.773 155.725 379.764 155.227 379.911 154.651C380.193 153.546 377.653 153.059 375.938 152.524C371.892 151.263 369.932 147.719 365.328 147.834C360.76 147.948 359.483 151.438 359.48 154.053C359.477 156.668 357.931 160.165 353.359 160.117C351.533 160.098 349.941 159.441 348.484 158.813C344.119 156.929 339.754 155.046 335.39 153.163C333.66 152.358 331.86 151.712 330.012 151.235C327.371 150.618 324.453 150.545 321.603 150.48C315.497 150.342 309.391 150.203 303.285 150.064C302.352 149.991 301.414 150.071 300.507 150.303C299.545 150.625 299.077 151.258 298.498 151.802C295.947 154.198 289.95 155.136 285.623 153.817C284.475 153.467 283.447 152.985 282.231 152.721C278.401 151.891 274.382 153.427 270.403 153.982C263.88 154.892 255.773 153.326 251.071 156.067C249.503 156.98 248.671 158.23 247.218 159.204C245.765 160.177 243.144 160.838 241.311 160.103C241.541 161.89 241.751 163.755 240.542 165.408C239.332 167.061 236.23 168.41 233.183 167.993C231.565 167.566 231.693 166.206 232.458 165.285C233.223 164.365 234.396 163.425 234.015 162.429C233.636 161.442 231.905 160.867 230.61 160.179C229.316 159.49 228.452 158.186 229.827 157.55C228.901 156.359 225.57 156.504 224.105 157.503C222.64 158.502 222.494 159.909 222.334 161.21C222.174 162.511 221.826 163.935 220.129 164.806C217.236 166.289 211.682 165.52 209.764 167.452C209.154 168.066 209.119 168.806 208.77 169.483C207.213 172.505 200.494 173.288 195.002 173.535C194.989 173.672 194.972 173.811 194.955 173.95C194.162 173.335 193.268 172.863 192.312 172.555C190.283 171.933 187.715 171.13 187.946 169.82C188.069 169.124 189 168.58 189.675 167.997C190.975 166.872 191.326 165.287 189.929 164.201C188.532 163.114 185.167 162.969 183.935 164.119C183.301 164.71 183.339 165.452 183.012 166.12C181.991 168.204 177.859 169.119 174.349 169.929C170.84 170.738 166.913 172.245 167.243 174.401C167.597 176.716 172.84 178.773 170.932 180.749Z" fill="black"/>
<path opacity="0.1" d="M161.528 206.051C160.562 206.229 159.64 206.59 158.811 207.115C159.337 207.138 159.86 207.172 160.363 207.204C166.23 207.579 173.632 206.303 174.543 202.967C175.002 201.284 173.589 199.639 172.217 198.127C171.666 197.519 171.114 196.912 170.563 196.304C167.692 197.28 163.77 197.62 160.363 197.403C158.215 197.265 155.689 197.077 154.213 197.98C153.075 198.677 153.077 199.761 153.455 200.689C154.428 203.077 157.542 205.145 161.528 206.051Z" fill="black"/>
<path d="M281.019 190.798C313.288 190.798 339.447 173.526 339.447 152.221C339.447 130.915 313.288 113.644 281.019 113.644C248.75 113.644 222.591 130.915 222.591 152.221C222.591 173.526 248.75 190.798 281.019 190.798Z" fill="#EA565C"/>
<path opacity="0.2" d="M261.154 149.493C261.154 149.493 234.666 152.221 242.457 140.92C250.247 129.62 259.985 125.723 264.659 128.841C269.334 131.958 271.281 140.531 270.502 140.531C269.723 140.531 258.427 133.906 254.532 138.972C250.637 144.038 261.154 149.493 261.154 149.493Z" fill="white"/>
<path opacity="0.2" d="M284.105 150.598C284.105 150.598 305.978 165.788 292.708 169.286C279.439 172.783 269.513 169.394 267.997 163.982C266.48 158.571 270.585 150.798 271.176 151.305C271.767 151.813 276.024 164.2 282.278 162.895C288.532 161.59 284.105 150.598 284.105 150.598Z" fill="white"/>
<path opacity="0.2" d="M289.211 141.077C289.211 141.077 290.937 114.496 300.777 124.064C310.616 133.632 312.834 143.886 308.983 147.977C305.131 152.069 296.357 152.561 296.486 151.792C296.616 151.024 305.028 140.986 300.685 136.299C296.341 131.613 289.211 141.077 289.211 141.077Z" fill="white"/>
<path d="M210.516 187.68C242.785 187.68 268.944 170.409 268.944 149.103C268.944 127.798 242.785 110.526 210.516 110.526C178.247 110.526 152.088 127.798 152.088 149.103C152.088 170.409 178.247 187.68 210.516 187.68Z" fill="#EA565C"/>
<path opacity="0.2" d="M190.65 146.376C190.65 146.376 164.163 149.103 171.953 137.803C179.744 126.503 189.482 122.606 194.156 125.723C198.83 128.841 200.778 137.413 199.999 137.413C199.22 137.413 187.924 130.789 184.028 135.855C180.133 140.92 190.65 146.376 190.65 146.376Z" fill="white"/>
<path opacity="0.2" d="M213.601 147.48C213.601 147.48 235.474 162.671 222.205 166.168C208.936 169.666 199.01 166.276 197.493 160.865C195.977 155.454 200.081 147.681 200.672 148.188C201.263 148.696 205.521 161.083 211.775 159.778C218.029 158.473 213.601 147.48 213.601 147.48Z" fill="white"/>
<path opacity="0.2" d="M218.708 137.96C218.708 137.96 220.434 111.379 230.273 120.947C240.113 130.514 242.331 140.769 238.479 144.86C234.627 148.951 225.853 149.443 225.983 148.675C226.113 147.907 234.525 137.868 230.181 133.182C225.837 128.496 218.708 137.96 218.708 137.96Z" fill="white"/>
<path opacity="0.1" d="M240.922 116.273C253.649 123.349 261.738 133.946 261.738 145.791C261.738 167.097 235.579 184.368 203.31 184.368C192.253 184.368 181.914 182.34 173.098 178.817C183.262 184.468 196.383 187.875 210.711 187.875C242.98 187.875 269.139 170.604 269.139 149.298C269.139 135.293 257.835 123.032 240.922 116.273Z" fill="black"/>
<path opacity="0.1" d="M311.426 119.001C324.153 126.077 332.241 136.673 332.241 148.519C332.241 169.824 306.082 187.096 273.813 187.096C262.756 187.096 252.417 185.067 243.602 181.544C253.765 187.196 266.886 190.603 281.214 190.603C313.483 190.603 339.642 173.331 339.642 152.026C339.642 138.021 328.338 125.759 311.426 119.001Z" fill="black"/>
<path d="M175.008 141.713C175.008 141.713 225.256 87.9392 348.345 110.15C445.647 127.708 365.745 157.928 327.997 169.819C317.046 173.268 305.7 175.311 294.234 175.9C251.649 178.094 144.534 180.055 175.008 141.713Z" fill="#714B4F"/>
<path opacity="0.1" d="M327.997 157.74C317.045 161.188 305.7 163.232 294.234 163.821C259.735 165.598 182.891 167.221 171.151 147.389C156.326 179.444 254.032 177.582 294.234 175.511C305.7 174.922 317.045 172.878 327.997 169.43C355.666 160.714 405.979 142.15 392.559 125.944C383.523 138.662 349.146 151.078 327.997 157.74Z" fill="black"/>
<path opacity="0.1" d="M282.321 110.345L295.954 137.232" stroke="black" stroke-width="2" stroke-miterlimit="10"/>
<path opacity="0.1" d="M240.252 120.087L251.938 142.687" stroke="black" stroke-width="2" stroke-miterlimit="10"/>
<path opacity="0.1" d="M306.861 110.345L325.168 137.232" stroke="black" stroke-width="2" stroke-miterlimit="10"/>
<path opacity="0.1" d="M240.252 145.025L362.952 129.439" stroke="black" stroke-width="2" stroke-miterlimit="10"/>
<path opacity="0.1" d="M358.277 115.411L366.847 127.49" stroke="black" stroke-width="2" stroke-miterlimit="10"/>
<path opacity="0.1" d="M216.102 129.439L221.555 140.739" stroke="black" stroke-width="2" stroke-miterlimit="10"/>
<path d="M234.418 92.8307C234.418 92.8307 346.467 92.3236 347.495 91.3094C348.523 90.2952 372.166 89.7579 376.792 96.3503C381.418 102.943 382.96 105.985 376.792 106.999C370.624 108.014 167.599 211.971 167.599 211.971C167.599 211.971 156.292 212.985 161.945 201.828C167.599 190.672 234.418 92.8307 234.418 92.8307Z" fill="#F6C964"/>
<path d="M281.459 139.199C281.459 143.395 261.229 153.617 236.275 153.617C211.32 153.617 191.09 143.395 191.09 139.199C191.09 135.002 211.32 133.354 236.275 133.354C261.23 133.354 281.459 135.002 281.459 139.199Z" fill="#61AB43"/>
<path d="M236.275 146.603C261.229 146.603 281.459 143.201 281.459 139.004C281.459 134.808 261.229 131.406 236.275 131.406C211.32 131.406 191.09 134.808 191.09 139.004C191.09 143.201 211.32 146.603 236.275 146.603Z" fill="#61AB43"/>
<path d="M335.992 132.185C335.992 136.381 315.762 146.603 290.808 146.603C265.853 146.603 245.623 136.381 245.623 132.185C245.623 127.988 265.853 126.34 290.808 126.34C315.762 126.34 335.992 127.988 335.992 132.185Z" fill="#61AB43"/>
<path d="M290.808 139.589C315.762 139.589 335.992 136.187 335.992 131.99C335.992 127.794 315.762 124.392 290.808 124.392C265.853 124.392 245.623 127.794 245.623 131.99C245.623 136.187 265.853 139.589 290.808 139.589Z" fill="#61AB43"/>
<path d="M390.525 125.171C390.525 129.367 370.295 139.589 345.341 139.589C320.386 139.589 300.156 129.367 300.156 125.171C300.156 120.974 320.386 119.326 345.341 119.326C370.295 119.326 390.525 120.974 390.525 125.171Z" fill="#61AB43"/>
<path d="M345.341 132.575C370.295 132.575 390.525 129.173 390.525 124.976C390.525 120.78 370.295 117.378 345.341 117.378C320.386 117.378 300.156 120.78 300.156 124.976C300.156 129.173 320.386 132.575 345.341 132.575Z" fill="#61AB43"/>
<path d="M178.935 127.33C178.935 127.33 160.351 124.303 169.859 109.172C179.367 94.0398 182.565 77.0773 186.714 73.2876C191.353 69.0508 287.094 -5.23266 361.68 76.9661C369.582 85.7783 376.006 95.8123 380.701 106.679C381.603 108.733 382.598 110.577 383.571 111.549C386.596 114.576 389.189 123.222 383.571 127.546C377.952 131.869 212.429 148.73 178.935 127.33Z" fill="#FECA57"/>
<path d="M266.018 64.4247C264.873 65.2214 263.523 65.6717 262.129 65.7217C259.981 65.7217 258.239 65.141 258.239 64.4247C258.239 63.7084 259.981 63.1277 262.129 63.1277C263.523 63.1778 264.873 63.628 266.018 64.4247V64.4247Z" fill="#F2F2F2"/>
<path d="M234.902 56.2103C233.756 57.007 232.406 57.4573 231.012 57.5073C228.864 57.5073 227.123 56.9266 227.123 56.2103C227.123 55.494 228.864 54.9133 231.012 54.9133C232.406 54.9634 233.756 55.4136 234.902 56.2103V56.2103Z" fill="#F2F2F2"/>
<path d="M319.431 68.1805C318.1 68.5988 316.677 68.6252 315.332 68.2566C313.282 67.615 311.793 66.5407 312.007 65.857C312.221 65.1734 314.056 65.1393 316.106 65.7809C317.422 66.2451 318.576 67.078 319.431 68.1805Z" fill="#F2F2F2"/>
<path d="M261.952 46.1313C260.621 46.5496 259.198 46.576 257.852 46.2074C255.802 45.5658 254.313 44.4915 254.527 43.8078C254.741 43.1242 256.576 43.0901 258.627 43.7317C259.942 44.1959 261.096 45.0289 261.952 46.1313V46.1313Z" fill="#F2F2F2"/>
<path d="M324.617 53.9134C323.286 54.3317 321.863 54.3581 320.518 53.9895C318.468 53.3479 316.979 52.2736 317.193 51.5899C317.407 50.9063 319.242 50.8722 321.292 51.5138C322.608 51.9779 323.762 52.8109 324.617 53.9134V53.9134Z" fill="#F2F2F2"/>
<path d="M311.829 52.7516C310.684 53.5483 309.333 53.9986 307.939 54.0486C305.791 54.0486 304.05 53.4679 304.05 52.7516C304.05 52.0353 305.791 51.4546 307.939 51.4546C309.333 51.5047 310.684 51.9549 311.829 52.7516V52.7516Z" fill="#F2F2F2"/>
<path d="M274.662 44.9696C273.517 45.7663 272.166 46.2165 270.772 46.2666C268.624 46.2666 266.883 45.6859 266.883 44.9696C266.883 44.2532 268.624 43.6726 270.772 43.6726C272.166 43.7226 273.517 44.1729 274.662 44.9696V44.9696Z" fill="#F2F2F2"/>
<path d="M303.185 44.9696C302.04 45.7663 300.69 46.2165 299.296 46.2666C297.148 46.2666 295.406 45.6859 295.406 44.9696C295.406 44.2532 297.148 43.6726 299.296 43.6726C300.69 43.7226 302.04 44.1729 303.185 44.9696V44.9696Z" fill="#F2F2F2"/>
<path d="M292.381 61.8307C291.236 62.6274 289.886 63.0776 288.492 63.1277C286.343 63.1277 284.602 62.547 284.602 61.8307C284.602 61.1144 286.343 60.5337 288.492 60.5337C289.886 60.5837 291.236 61.034 292.381 61.8307V61.8307Z" fill="#F2F2F2"/>
<path d="M260.955 58.8008C261.279 57.4436 261.987 56.2084 262.994 55.2425C264.597 53.8118 266.283 53.0853 266.76 53.6198C267.236 54.1543 266.323 55.7474 264.721 57.1781C263.647 58.0692 262.34 58.6325 260.955 58.8008Z" fill="#F2F2F2"/>
<path d="M241.507 54.0451C241.832 52.6879 242.54 51.4526 243.546 50.4868C245.149 49.0561 246.835 48.3296 247.312 48.8641C247.789 49.3986 246.876 50.9917 245.273 52.4224C244.199 53.3135 242.892 53.8768 241.507 54.0451V54.0451Z" fill="#F2F2F2"/>
<path d="M207.797 77.3913C208.122 76.034 208.83 74.7988 209.836 73.833C211.439 72.4023 213.125 71.6758 213.602 72.2103C214.079 72.7448 213.166 74.3379 211.563 75.7686C210.489 76.6597 209.182 77.223 207.797 77.3913Z" fill="#F2F2F2"/>
<path d="M282.564 51.4511C282.888 50.0938 283.596 48.8586 284.603 47.8928C286.206 46.4621 287.892 45.7356 288.369 46.2701C288.845 46.8046 287.932 48.3977 286.329 49.8284C285.256 50.7195 283.949 51.2828 282.564 51.4511Z" fill="#F2F2F2"/>
<path d="M274.785 67.0152C275.11 65.658 275.817 64.4227 276.824 63.4569C278.427 62.0262 280.113 61.2997 280.59 61.8342C281.066 62.3687 280.154 63.9618 278.551 65.3925C277.477 66.2836 276.17 66.8469 274.785 67.0152Z" fill="#F2F2F2"/>
<path d="M418.339 236.437C418.339 236.437 412.421 238.213 409.463 241.764C409.463 241.764 404.137 244.132 400.883 243.54C397.628 242.948 391.711 248.868 396.445 250.644C401.179 252.419 430.173 257.155 430.765 255.675C431.357 254.195 431.357 239.101 431.357 239.101L418.339 236.437Z" fill="#F0F0F0"/>
<path d="M464.82 233.895C464.82 233.895 459.293 236.656 456.984 240.661C456.984 240.661 452.141 243.904 448.833 243.877C445.525 243.85 440.706 250.693 445.673 251.634C450.641 252.575 480.018 252.287 480.348 250.727C480.678 249.168 478.101 234.295 478.101 234.295L464.82 233.895Z" fill="#F0F0F0"/>
<path d="M427.954 33.2533C435.307 33.2533 441.268 27.2904 441.268 19.9347C441.268 12.579 435.307 6.616 427.954 6.616C420.601 6.616 414.641 12.579 414.641 19.9347C414.641 27.2904 420.601 33.2533 427.954 33.2533Z" fill="#FFB9B9"/>
<path d="M438.753 22.1544C438.753 22.1544 440.232 32.2174 442.895 33.4013C444.748 34.3136 446.445 35.5122 447.925 36.953L440.528 40.5046L426.031 39.6167C426.031 39.6167 427.215 33.1053 425.144 29.8497C423.073 26.594 438.753 22.1544 438.753 22.1544Z" fill="#FFB9B9"/>
<path d="M466.268 69.8056C466.268 69.8056 473.073 87.2679 466.268 104.138C459.464 121.009 456.505 123.672 456.505 123.672L454.434 101.474L456.815 99.3132C456.815 99.3132 458.258 92.5788 457.085 88.5915C455.913 84.6042 457.689 72.1734 457.689 72.1734L466.268 69.8056Z" fill="#FFB9B9"/>
<path d="M415.38 107.69C415.38 107.69 406.8 127.224 407.688 136.695C408.576 146.166 415.38 186.122 415.38 186.122C415.38 186.122 414.493 237.621 417.155 237.621C419.818 237.621 432.54 242.356 432.54 239.101C432.54 235.845 435.203 157.709 435.203 157.709C435.203 157.709 450.292 192.041 451.771 194.705C453.25 197.369 462.718 239.101 465.972 239.101C469.227 239.101 479.286 236.141 478.399 234.069C477.511 231.997 467.452 185.826 461.83 173.987C456.209 162.148 457.393 117.457 457.393 117.457L447.925 96.739L415.38 107.69Z" fill="#262529"/>
<path d="M423.96 13.8673C423.96 13.8673 415.676 13.2753 415.084 11.2035C414.493 9.13174 413.309 7.35591 413.901 7.35591C414.493 7.35591 414.789 5.87606 414.789 5.87606C414.789 5.87606 415.38 5.58009 415.676 5.87606C415.972 6.17203 416.268 3.80427 416.268 3.80427C416.268 3.80427 416.564 2.91637 416.86 3.50831C417.155 4.10025 417.155 3.80427 417.451 2.91636C417.747 2.02845 419.226 1.43652 419.226 1.43652C419.226 1.43652 424.848 1.73248 425.735 0.548605C426.623 -0.635272 436.682 0.252629 438.753 1.73248C440.824 3.21233 449.996 8.5398 448.517 12.9794C447.037 17.4189 441.712 27.1859 441.712 28.6658C441.712 30.1456 439.641 29.8497 439.049 28.3698C438.457 26.89 433.724 25.1141 433.724 24.2262C433.724 23.3383 431.061 15.0512 429.582 15.6431C428.102 16.235 426.327 20.9706 425.735 20.0827C425.144 19.1947 423.96 13.8673 423.96 13.8673Z" fill="#262529"/>
<path d="M464.789 54.4152C464.789 54.4152 452.659 36.657 449.109 35.7691C445.558 34.8811 437.57 32.5134 437.57 32.5134C437.57 32.5134 429.582 33.6973 427.215 34.8812C424.848 36.065 415.972 38.1368 415.676 41.6885C415.38 45.2401 418.043 79.2767 416.564 82.5324C415.085 85.788 410.055 116.865 412.422 116.273C414.789 115.681 413.014 107.986 423.369 107.69C433.724 107.394 439.345 101.179 443.191 108.578C447.038 115.977 457.984 121.6 457.984 121.6C458.26 119.214 458.655 116.844 459.168 114.497C460.055 110.354 456.801 100.291 456.801 100.291C456.801 100.291 457.097 76.9089 458.28 74.2452C459.464 71.5815 464.789 54.4152 464.789 54.4152Z" fill="#AA2424"/>
<path d="M460.351 53.8232L464.789 54.4152C464.789 54.4152 464.493 60.3346 465.676 62.1104C466.86 63.8862 468.931 73.0613 467.747 73.3573C466.564 73.6533 455.913 75.4291 455.913 75.4291L455.321 61.8144L460.351 53.8232Z" fill="#AA2424"/>
<path d="M412.422 64.4782C412.422 64.4782 409.463 83.7163 407.984 86.084C406.504 88.4518 399.108 121.6 399.108 121.6C399.108 121.6 386.945 138.521 392.862 138.225C398.779 137.929 405.025 122.784 405.025 122.784C405.025 122.784 423.368 89.3397 423.368 85.7881C423.368 82.2364 427.806 64.4782 427.806 64.4782L412.422 64.4782Z" fill="#FFB9B9"/>
<path d="M421.002 38.4328L415.676 40.5046C415.676 40.5046 408.871 64.7742 410.351 66.846C411.83 68.9177 429.582 65.958 429.877 65.0701C430.173 64.1822 426.623 38.4328 421.002 38.4328Z" fill="#AA2424"/>
<path d="M47.2256 199.049C47.2256 227.886 65.3096 251.221 87.6581 251.221Z" fill="#F0F0F0"/>
<path d="M87.6582 251.221C87.6582 222.06 107.839 198.463 132.779 198.463Z" fill="#AA2424"/>
<path d="M61.875 201.663C61.875 229.055 73.4069 251.221 87.658 251.221Z" fill="#AA2424"/>
<path d="M87.6582 251.221C87.6582 213.959 110.984 183.808 139.81 183.808Z" fill="#F0F0F0"/>
<path d="M79.1523 251.588C79.1523 251.588 84.8863 251.412 86.6144 250.181C88.3425 248.95 95.4347 247.48 95.8634 249.454C96.2921 251.428 104.481 259.273 98.0069 259.325C91.5333 259.378 82.965 258.317 81.2403 257.266C79.5155 256.215 79.1523 251.588 79.1523 251.588Z" fill="#A8A8A8"/>
<path opacity="0.2" d="M98.1224 258.638C91.6488 258.69 83.0806 257.629 81.3558 256.578C80.0423 255.778 79.5189 252.906 79.3438 251.581C79.2225 251.586 79.1523 251.588 79.1523 251.588C79.1523 251.588 79.5155 256.215 81.2403 257.266C82.965 258.317 91.5333 259.378 98.0069 259.325C99.8756 259.31 100.521 258.645 100.486 257.66C100.226 258.255 99.5134 258.627 98.1224 258.638Z" fill="black"/>
</svg>
