<?xml version="1.0" encoding="iso-8859-1"?>
<!-- Generator: Adobe Illustrator 19.0.0, SVG Export Plug-In . SVG Version: 6.00 Build 0)  -->
<svg version="1.1" id="Capa_1" xmlns="http://www.w3.org/2000/svg" xmlns:xlink="http://www.w3.org/1999/xlink" x="0px" y="0px"
	 viewBox="0 0 512 512" style="enable-background:new 0 0 512 512;" xml:space="preserve">
<g>
	<g>
		<path d="M437.02,74.981C388.667,26.628,324.38,0,256,0S123.333,26.628,74.98,74.981C26.629,123.333,0,187.62,0,256
			s26.629,132.667,74.98,181.019C123.333,485.372,187.62,512,256,512s132.667-26.628,181.02-74.981
			C485.371,388.667,512,324.38,512,256S485.371,123.333,437.02,74.981z M256,492C125.869,492,20,386.131,20,256S125.869,20,256,20
			s236,105.869,236,236S386.131,492,256,492z"/>
	</g>
</g>
<g>
	<g>
		<path d="M451.464,255.997c0-7.427,2.975-15.941,6.124-24.955c4.837-13.843,9.838-28.159,5.249-42.253
			c-4.773-14.656-18.106-23.806-29.87-31.878c-7.617-5.227-14.813-10.165-18.883-15.752c-4.155-5.703-6.679-14.156-9.351-23.105
			c-4.052-13.577-8.647-28.965-20.939-37.919c-12.179-8.873-27.475-8.541-42.266-8.221c-9.406,0.206-18.289,0.397-25.131-1.832
			c-6.381-2.077-13.188-7.312-20.394-12.854C284.612,48.467,271.7,38.537,256,38.537s-28.612,9.931-40.004,18.693
			c-7.207,5.542-14.012,10.777-20.393,12.855c-6.842,2.228-15.726,2.035-25.13,1.832c-14.79-0.322-30.088-0.651-42.267,8.22
			c-12.292,8.954-16.885,24.342-20.939,37.919c-2.672,8.949-5.196,17.402-9.351,23.106c-4.07,5.588-11.266,10.525-18.883,15.753
			c-11.764,8.072-25.097,17.222-29.87,31.879c-4.589,14.093,0.412,28.408,5.249,42.252c3.149,9.014,6.124,17.528,6.124,24.955
			s-2.975,15.941-6.124,24.955c-4.837,13.843-9.838,28.159-5.249,42.253c4.773,14.656,18.106,23.806,29.87,31.878
			c7.617,5.228,14.813,10.166,18.883,15.753c4.155,5.703,6.679,14.156,9.351,23.105c4.052,13.577,8.647,28.965,20.938,37.919
			c12.18,8.873,27.478,8.54,42.268,8.221c9.401-0.204,18.288-0.396,25.13,1.832c6.381,2.078,13.188,7.312,20.394,12.855
			c11.391,8.761,24.303,18.691,40.003,18.691s28.612-9.931,40.004-18.696c7.206-5.541,14.012-10.776,20.393-12.854
			c6.84-2.228,15.721-2.036,25.13-1.832c14.79,0.319,30.088,0.652,42.267-8.22c12.292-8.954,16.885-24.342,20.939-37.919
			c2.672-8.949,5.196-17.402,9.351-23.106c4.07-5.588,11.266-10.525,18.883-15.753c11.764-8.072,25.097-17.222,29.87-31.879
			c4.589-14.093-0.412-28.408-5.249-42.252C454.439,271.938,451.464,263.424,451.464,255.997z M438.708,287.551
			c3.914,11.205,7.612,21.787,5.112,29.463c-2.671,8.201-12.142,14.701-22.169,21.582c-8.672,5.952-17.641,12.107-23.732,20.467
			c-6.173,8.474-9.313,18.991-12.349,29.161c-3.454,11.569-6.717,22.496-13.552,27.475c-6.721,4.895-18.056,4.65-30.058,4.39
			c-10.663-0.231-21.685-0.469-31.756,2.81c-9.653,3.144-18.163,9.689-26.393,16.019c-9.725,7.48-18.911,14.545-27.81,14.545
			c-8.899,0-18.086-7.065-27.811-14.545c-8.231-6.329-16.741-12.875-26.393-16.018c-7.472-2.433-15.468-2.93-23.451-2.93
			c-2.778,0-5.554,0.06-8.306,0.118c-12.003,0.259-23.336,0.505-30.058-4.391c-6.835-4.979-10.097-15.907-13.551-27.476
			c-3.037-10.17-6.177-20.686-12.349-29.16c-6.09-8.361-15.059-14.515-23.732-20.467c-10.027-6.881-19.498-13.381-22.169-21.581
			c-2.5-7.676,1.198-18.26,5.112-29.464c3.561-10.192,7.243-20.731,7.243-31.552c0-10.821-3.682-21.36-7.243-31.552
			c-3.914-11.205-7.612-21.787-5.112-29.463c2.671-8.201,12.142-14.701,22.169-21.582c8.672-5.952,17.641-12.107,23.732-20.467
			c6.173-8.474,9.313-18.991,12.349-29.161c3.454-11.569,6.717-22.496,13.551-27.475c6.721-4.895,18.053-4.649,30.059-4.39
			c10.658,0.231,21.684,0.47,31.756-2.809c9.653-3.144,18.163-9.689,26.393-16.019c9.726-7.48,18.912-14.545,27.811-14.545
			c8.898,0,18.085,7.065,27.81,14.545c8.231,6.33,16.741,12.875,26.393,16.018c10.072,3.281,21.098,3.042,31.757,2.811
			c11.998-0.26,23.336-0.505,30.058,4.391c6.835,4.979,10.097,15.907,13.551,27.476c3.038,10.17,6.177,20.686,12.349,29.16
			c6.09,8.361,15.059,14.515,23.732,20.467c10.027,6.881,19.498,13.381,22.169,21.581c2.5,7.676-1.198,18.26-5.112,29.464
			c-3.561,10.192-7.243,20.731-7.243,31.552C431.465,266.82,435.147,277.359,438.708,287.551z"/>
	</g>
</g>
<g>
	<g>
		<path d="M393.754,301.544c-5.241-1.743-10.903,1.091-12.647,6.33c-15.75,47.315-59.805,79.105-109.624,79.105
			c-5.522,0-10,4.477-10,10s4.478,10,10,10c58.446,0,110.126-37.289,128.601-92.788
			C401.828,308.951,398.994,303.289,393.754,301.544z"/>
	</g>
</g>
<g>
	<g>
		<path d="M396.979,261.484h-0.143c-5.522,0-10,4.477-10,10s4.478,10,10,10h0.143c5.523,0,10-4.477,10-10
			C406.979,265.961,402.502,261.484,396.979,261.484z"/>
	</g>
</g>
<g>
	<g>
		<path d="M210.89,212.135L210.89,212.135c-11.697-11.816-27.293-18.347-43.915-18.389c-16.656-0.028-32.248,6.408-44.002,18.161
			c-1.771,1.772-3.451,3.667-4.991,5.632c-7.024,8.96-6.258,21.777,1.78,29.814l6.858,6.858
			c-7.401,4.341-14.625,8.661-18.618,11.276c-4.421,2.895-7.364,7.742-7.872,12.965c-0.484,4.976,1.236,9.782,4.671,13.137
			l26.212,25.968c3.091,3.089,7.268,4.784,11.669,4.784c0.587,0,1.178-0.03,1.773-0.091c5.173-0.533,9.774-3.331,12.624-7.678
			c2.594-3.956,6.924-11.195,11.28-18.623l6.857,6.857c8.038,8.04,20.858,8.802,29.818,1.779c2.328-1.825,4.555-3.844,6.618-6.002
			c11.18-11.694,17.259-27.099,17.113-43.378C228.619,238.929,222.272,223.634,210.89,212.135z M197.196,284.76
			c-1.405,1.47-2.919,2.843-4.5,4.082c-1.011,0.792-2.446,0.715-3.339-0.179l-16.042-16.042c-2.199-2.198-5.304-3.247-8.375-2.843
			c-3.082,0.406-5.8,2.221-7.355,4.913c-6.71,11.616-12.015,20.582-15.304,25.876l-20.397-20.207
			c6.98-4.342,18.892-11.275,25.994-15.377c2.691-1.555,4.507-4.273,4.913-7.355c0.405-3.082-0.646-6.177-2.844-8.375
			l-16.043-16.043c-0.893-0.893-0.971-2.327-0.182-3.334c1.047-1.334,2.189-2.622,3.394-3.828
			c7.936-7.937,18.479-12.303,29.699-12.303c0.037,0,0.073,0,0.11,0c11.26,0.028,21.825,4.453,29.75,12.459
			C212.524,242.215,212.757,268.484,197.196,284.76z"/>
	</g>
</g>
<g>
	<g>
		<path d="M260.07,92.231c-40.468,0-73.391,32.923-73.391,73.391c0,5.523,4.478,10,10,10H323.46c5.522,0,10-4.477,10.001-10
			C333.461,125.154,300.538,92.231,260.07,92.231z M207.618,155.622c4.696-24.676,26.429-43.391,52.451-43.391
			c26.022,0,47.756,18.715,52.451,43.391H207.618z"/>
	</g>
</g>
<g>
	<g>
		<path d="M271.483,216.322c-5.522,0-10,4.477-10,10v125.09c0,5.523,4.478,10,10,10c40.001,0,72.545-32.544,72.545-72.546
			C344.028,248.865,311.484,216.322,271.483,216.322z M281.483,340.457v-103.18c24.208,4.683,42.545,26.035,42.545,51.59
			S305.691,335.774,281.483,340.457z"/>
	</g>
</g>
<g>
	<g>
		<path d="M378.898,177.088c-20.402,0-37,16.598-37,37c0,20.402,16.598,37,37,37c20.403,0,37-16.598,37-37
			C415.898,193.686,399.3,177.088,378.898,177.088z M378.898,231.088c-9.374,0-17-7.626-17-17c0-9.374,7.626-17,17-17
			c9.374,0,17,7.626,17,17C395.898,223.462,388.272,231.088,378.898,231.088z"/>
	</g>
</g>
<g>
	<g>
		<path d="M200.178,337.425c-20.402,0-37,16.598-37,37c0,20.402,16.598,37,37,37c20.402,0,37-16.598,37-37
			C237.178,354.023,220.58,337.425,200.178,337.425z M200.178,391.425c-9.374,0-17-7.626-17-17c0-9.374,7.626-17,17-17
			c9.374,0,17,7.626,17,17C217.178,383.799,209.552,391.425,200.178,391.425z"/>
	</g>
</g>
<g>
</g>
<g>
</g>
<g>
</g>
<g>
</g>
<g>
</g>
<g>
</g>
<g>
</g>
<g>
</g>
<g>
</g>
<g>
</g>
<g>
</g>
<g>
</g>
<g>
</g>
<g>
</g>
<g>
</g>
</svg>
