<?xml version="1.0" encoding="iso-8859-1"?>
<!-- Generator: Adobe Illustrator 19.0.0, SVG Export Plug-In . SVG Version: 6.00 Build 0)  -->
<svg version="1.1" id="Capa_1" xmlns="http://www.w3.org/2000/svg" xmlns:xlink="http://www.w3.org/1999/xlink" x="0px" y="0px"
	 viewBox="0 0 512 512" style="enable-background:new 0 0 512 512;" xml:space="preserve">
<g>
	<g>
		<path d="M350.66,127.881c-0.12-0.64-0.32-1.27-0.57-1.87c-0.25-0.611-0.56-1.191-0.92-1.73c-0.36-0.55-0.78-1.06-1.24-1.52
			c-0.46-0.46-0.97-0.88-1.52-1.24c-0.54-0.359-1.12-0.67-1.73-0.92c-0.599-0.25-1.229-0.45-1.87-0.58
			c-3.25-0.65-6.701,0.42-9.02,2.74c-0.46,0.459-0.88,0.969-1.24,1.52c-0.36,0.539-0.67,1.12-0.92,1.73
			c-0.25,0.599-0.45,1.23-0.57,1.87c-0.13,0.639-0.2,1.3-0.2,1.95c0,0.649,0.07,1.309,0.2,1.95c0.12,0.64,0.32,1.269,0.57,1.869
			c0.25,0.61,0.56,1.19,0.92,1.73c0.36,0.55,0.78,1.06,1.24,1.52c0.46,0.46,0.97,0.881,1.52,1.24c0.54,0.36,1.12,0.67,1.73,0.92
			c0.599,0.25,1.229,0.45,1.87,0.57c0.639,0.13,1.3,0.2,1.949,0.2c0.651,0,1.311-0.07,1.951-0.2c0.641-0.12,1.27-0.32,1.87-0.57
			c0.61-0.25,1.19-0.56,1.73-0.92c0.55-0.359,1.06-0.78,1.52-1.24c0.46-0.46,0.88-0.97,1.24-1.52c0.36-0.54,0.67-1.12,0.92-1.73
			c0.25-0.599,0.44-1.229,0.57-1.869c0.13-0.64,0.199-1.301,0.199-1.95C350.859,129.181,350.79,128.521,350.66,127.881z"/>
	</g>
</g>
<g>
	<g>
		<path d="M181.329,425.711c-0.13-0.641-0.32-1.27-0.57-1.87c-0.25-0.61-0.56-1.19-0.92-1.73c-0.36-0.55-0.78-1.06-1.24-1.52
			c-0.47-0.46-0.98-0.88-1.52-1.24c-0.549-0.37-1.129-0.67-1.73-0.92c-0.6-0.25-1.229-0.45-1.87-0.58c-1.29-0.25-2.62-0.25-3.91,0
			c-0.639,0.13-1.269,0.33-1.869,0.58s-1.18,0.55-1.73,0.92c-0.54,0.36-1.05,0.78-1.52,1.24c-0.46,0.46-0.881,0.97-1.24,1.52
			c-0.36,0.54-0.67,1.12-0.92,1.73c-0.25,0.6-0.44,1.229-0.57,1.87c-0.13,0.639-0.2,1.3-0.2,1.95c0,0.649,0.07,1.309,0.2,1.949
			c0.13,0.641,0.32,1.27,0.57,1.87c0.25,0.61,0.56,1.19,0.92,1.73c0.359,0.55,0.78,1.06,1.24,1.52c0.47,0.46,0.98,0.88,1.52,1.24
			c0.549,0.361,1.129,0.67,1.73,0.92c0.599,0.25,1.229,0.45,1.869,0.57c0.65,0.13,1.301,0.2,1.961,0.2c0.65,0,1.3-0.07,1.949-0.2
			c0.641-0.12,1.27-0.32,1.87-0.57s1.18-0.56,1.73-0.92c0.541-0.36,1.05-0.78,1.52-1.24c0.46-0.46,0.88-0.97,1.24-1.52
			c0.36-0.54,0.67-1.12,0.92-1.73c0.25-0.599,0.44-1.229,0.57-1.87c0.13-0.639,0.2-1.3,0.2-1.949
			C181.529,427.011,181.459,426.351,181.329,425.711z"/>
	</g>
</g>
<g>
	<g>
		<path d="M434.177,160.485c-0.007-0.031-0.015-0.061-0.022-0.091c-1.158-4.878-3.405-9.538-6.501-13.485l-0.001-0.001
			l-33.032-42.101c3.688-1.472,6.295-5.077,6.295-9.291V56.144c0-5.522-4.477-10-10-10H222.852v-9.477
			C222.852,16.449,206.404,0,186.131,0c-20.218,0-36.667,16.449-36.667,36.667v9.477h-28.38c-5.522,0-10,4.478-10,10v39.372
			c0,4.214,2.607,7.818,6.295,9.291l-33.033,42.102c-3.096,3.946-5.343,8.607-6.501,13.485c-0.007,0.03-0.015,0.061-0.022,0.091
			c-0.614,2.612-0.926,5.3-0.926,7.987v221.2c0,3.139,0.423,6.264,1.259,9.29c0.012,0.044,0.024,0.089,0.036,0.133
			c1.242,4.435,3.313,8.52,6.155,12.142l33.032,42.101c-3.688,1.472-6.295,5.077-6.295,9.291V502c0,5.522,4.478,10,10,10h269.832
			c5.523,0,10-4.478,10-10v-39.372c0-4.213-2.607-7.818-6.295-9.291l33.032-42.101c2.842-3.622,4.913-7.707,6.155-12.142
			c0.012-0.044,0.024-0.088,0.036-0.133c0.836-3.027,1.259-6.151,1.259-9.29V168.472
			C435.103,165.784,434.792,163.097,434.177,160.485z M186.187,20c9.19,0,16.666,7.477,16.666,16.667v9.415h-33.389v-9.415h0
			C169.464,27.477,176.941,20,186.187,20z M131.084,66.144h249.832v19.372H131.084V66.144z M105.165,152.773l10.155-12.943h185.498
			c5.522,0,10-4.478,10-10c0-5.522-4.478-10-10-10H131.012l11.231-14.314h227.514l37.078,47.258L105.165,152.773L105.165,152.773z
			 M380.916,492H131.084v-19.372h249.832V492z M211.567,417.66c-5.522,0-10,4.478-10,10c0,5.522,4.478,10,10,10H381.5
			l-11.744,14.968H142.243l-36.271-46.229h300.055l-8.835,11.261H211.567z M415.103,386.398H96.896V172.773h318.207V386.398z"/>
	</g>
</g>
<g>
	<g>
		<path d="M310.635,223.497c-10.85-7.206-24.107-9.213-34.134-7.838l6.827-3.358c4.955-2.438,6.997-8.432,4.56-13.388
			c-2.438-4.955-8.43-6.997-13.388-4.56l-8.228,4.048c-8.893,4.374-15.391,11.949-18.402,20.972
			c-1.487-0.484-3.024-1.046-4.492-1.664c-9.578-4.029-27.446-3.204-41.697,6.261c-9.835,6.532-21.559,19.515-21.559,44.266
			c0,44.755,17.033,92.924,54.432,92.924c12.031,0,17.279-2.414,21.445-4.968c4.166,2.554,9.414,4.968,21.445,4.968
			c37.398,0,54.432-48.169,54.432-92.924C331.877,242.92,320.325,229.934,310.635,223.497z M277.445,341.159
			c-7.766,0-9.636-1.169-11.285-2.2c-1.912-1.195-5.113-3.197-10.16-3.197c-5.047,0-8.248,2.002-10.16,3.197
			c-1.649,1.031-3.52,2.2-11.285,2.2c-22.364,0-34.432-37.572-34.432-72.924c0-12.754,4.247-22.042,12.624-27.606
			c9.139-6.069,20.068-5.665,22.875-4.486c5.563,2.341,14.237,5.074,20.378,5.074c6.141,0,14.815-2.733,20.377-5.073
			c3.092-1.301,14.152-1.991,23.192,4.013c8.167,5.424,12.308,14.871,12.308,28.078C311.877,303.587,299.81,341.159,277.445,341.159
			z"/>
	</g>
</g>
<g>
</g>
<g>
</g>
<g>
</g>
<g>
</g>
<g>
</g>
<g>
</g>
<g>
</g>
<g>
</g>
<g>
</g>
<g>
</g>
<g>
</g>
<g>
</g>
<g>
</g>
<g>
</g>
<g>
</g>
</svg>
